<svg width="1200" height="799" viewBox="0 0 1200 799" fill="none" xmlns="http://www.w3.org/2000/svg">
<g clip-path="url(#clip0_8_14)">
<rect width="1200" height="799" fill="white"/>
<g filter="url(#filter0_d_8_14)">
<path d="M765 640C765 612.386 787.386 590 815 590H1015C1042.61 590 1065 612.386 1065 640C1065 667.614 1042.61 690 1015 690H815C787.386 690 765 667.614 765 640Z" fill="#EC221F"/>
<path d="M765.5 640C765.5 612.662 787.662 590.5 815 590.5H1015C1042.34 590.5 1064.5 612.662 1064.5 640C1064.5 667.338 1042.34 689.5 1015 689.5H815C787.662 689.5 765.5 667.338 765.5 640Z" stroke="#C00F0C" stroke-linecap="round"/>
<path d="M892.197 634.432H898.133V635.552H892.197V634.432ZM895.365 636.928H896.517V647.232H895.365V636.928ZM892.101 643.344C893.733 643.088 896.229 642.656 898.613 642.224L898.677 643.28C896.437 643.712 894.101 644.192 892.357 644.512L892.101 643.344ZM892.757 640.704C892.709 640.464 892.533 639.936 892.389 639.648C892.661 639.568 892.901 639.056 893.189 638.352C893.477 637.68 894.405 634.992 894.773 632.576L895.957 632.816C895.381 635.392 894.421 638.144 893.477 640.048V640.064C893.477 640.064 892.757 640.464 892.757 640.704ZM892.757 640.704V639.696L893.413 639.376H898.165V640.48H893.941C893.381 640.48 892.901 640.576 892.757 640.704ZM900.469 640.432H905.253V641.568H900.469V640.432ZM904.965 640.432H905.173L905.349 640.368L906.197 640.784C905.317 642.112 904.021 643.872 902.901 645.296L901.861 644.816C902.965 643.44 904.293 641.584 904.965 640.576V640.432ZM899.973 643.92L900.741 643.152C902.389 644.096 904.277 645.44 905.221 646.368L904.437 647.312C903.493 646.368 901.589 644.88 899.973 643.92ZM902.277 632.576L903.461 632.736C902.741 635.552 901.685 639.392 900.965 641.568H899.669C900.485 639.296 901.605 635.376 902.277 632.576ZM898.901 634.448H906.229V635.568H898.901V634.448ZM898.293 637.456H906.805V638.576H898.293V637.456ZM908.886 646V634.364H912.817C913.73 634.364 914.477 634.528 915.056 634.858C915.639 635.184 916.071 635.625 916.352 636.182C916.632 636.739 916.772 637.36 916.772 638.045C916.772 638.731 916.632 639.354 916.352 639.915C916.075 640.475 915.647 640.922 915.067 641.256C914.488 641.585 913.746 641.75 912.84 641.75H910.022V640.5H912.795C913.42 640.5 913.922 640.392 914.3 640.176C914.679 639.96 914.954 639.669 915.124 639.301C915.299 638.93 915.386 638.511 915.386 638.045C915.386 637.58 915.299 637.163 915.124 636.795C914.954 636.428 914.677 636.14 914.295 635.932C913.912 635.72 913.405 635.614 912.772 635.614H910.295V646H908.886ZM922.633 646H919.042V634.364H922.792C923.921 634.364 924.887 634.597 925.69 635.062C926.493 635.525 927.108 636.189 927.536 637.057C927.964 637.92 928.178 638.955 928.178 640.159C928.178 641.371 927.962 642.415 927.531 643.29C927.099 644.161 926.47 644.831 925.644 645.301C924.818 645.767 923.815 646 922.633 646ZM920.451 644.75H922.542C923.504 644.75 924.301 644.564 924.934 644.193C925.567 643.822 926.038 643.294 926.349 642.608C926.659 641.922 926.815 641.106 926.815 640.159C926.815 639.22 926.661 638.411 926.354 637.733C926.048 637.051 925.589 636.528 924.979 636.165C924.37 635.797 923.61 635.614 922.701 635.614H920.451V644.75ZM930.542 646V634.364H937.519V635.614H931.951V639.545H936.996V640.795H931.951V646H930.542Z" fill="#FEE9E7"/>
</g>
<g filter="url(#filter1_d_8_14)">
<path d="M765 461C765 433.386 787.386 411 815 411H1015C1042.61 411 1065 433.386 1065 461C1065 488.614 1042.61 511 1015 511H815C787.386 511 765 488.614 765 461Z" fill="#EC221F"/>
<path d="M765.5 461C765.5 433.662 787.662 411.5 815 411.5H1015C1042.34 411.5 1064.5 433.662 1064.5 461C1064.5 488.338 1042.34 510.5 1015 510.5H815C787.662 510.5 765.5 488.338 765.5 461Z" stroke="#C00F0C" stroke-linecap="round"/>
<path d="M886.328 456.68H897.416V457.848H886.328V456.68ZM885.624 461.368H896.84V462.52H885.624V461.368ZM883.88 466.6H898.168V467.768H883.88V466.6ZM890.408 453.576H891.64V467.192H890.408V453.576ZM886.808 453.832L888.04 454.104C887.336 456.584 886.216 458.952 884.936 460.488C884.696 460.28 884.152 459.928 883.848 459.768C885.16 458.344 886.2 456.12 886.808 453.832ZM901.72 459.56H905.704V460.68H901.72V459.56ZM905.224 459.56H906.392C906.392 459.56 906.392 459.912 906.392 460.072C906.312 463.688 906.216 465.032 905.88 465.48C905.624 465.768 905.368 465.88 904.92 465.928C904.504 465.976 903.784 465.96 903 465.928C902.968 465.576 902.84 465.112 902.664 464.808C903.384 464.872 904.088 464.872 904.36 464.872C904.584 464.872 904.744 464.856 904.856 464.712C905.096 464.424 905.176 463.224 905.224 459.768V459.56ZM909.736 454.376L910.456 453.624C911.448 454.136 912.712 454.904 913.336 455.464L912.584 456.28C911.976 455.72 910.744 454.904 909.736 454.376ZM912.024 458.712L913.224 459C911.864 463.176 909.48 466.264 906.2 468.2C906.024 467.96 905.576 467.464 905.32 467.224C908.568 465.496 910.824 462.568 912.024 458.712ZM901.816 456.28H914.2V457.464H901.816V456.28ZM901.048 456.28H902.296V460.792C902.296 463.064 902.04 466.296 900.584 468.392C900.376 468.152 899.864 467.736 899.576 467.592C900.904 465.624 901.048 462.872 901.048 460.776V456.28ZM907.688 453.592H908.936C908.904 460.952 910.472 466.952 912.552 466.952C913 466.952 913.208 466.12 913.304 463.992C913.576 464.264 914.024 464.536 914.344 464.648C914.12 467.384 913.672 468.168 912.456 468.168C909.192 468.168 907.752 461.256 907.688 453.592ZM916.552 454.584L917.352 453.88C918.152 454.584 919.16 455.576 919.64 456.216L918.776 457.032C918.328 456.376 917.336 455.336 916.552 454.584ZM917.8 467.64L917.576 466.536L917.864 466.04L920.6 463.768C920.712 464.088 920.92 464.536 921.048 464.744C918.408 466.984 918.008 467.336 917.8 467.64ZM915.688 458.568H918.664V459.672H915.688V458.568ZM920.408 461.864H930.28V462.968H920.408V461.864ZM926.296 462.392C927.24 463.992 929.032 465.736 930.552 466.568C930.28 466.792 929.912 467.208 929.72 467.512C928.2 466.504 926.456 464.536 925.464 462.744L926.296 462.392ZM922.376 457.848V459.512H928.136V457.848H922.376ZM922.376 455.24V456.888H928.136V455.24H922.376ZM921.272 454.248H929.272V460.504H921.272V454.248ZM924.408 462.392L925.256 462.712C924.248 464.712 922.408 466.68 920.648 467.656C920.472 467.368 920.12 466.968 919.864 466.744C921.608 465.928 923.464 464.152 924.408 462.392ZM924.808 454.744H925.912V460.008H925.96V468.28H924.776V460.008H924.808V454.744ZM917.8 467.64C917.656 467.416 917.288 467 917.064 466.84C917.368 466.568 917.928 465.944 917.928 465.112V458.568H919.08V465.912C919.08 465.912 917.8 467.16 917.8 467.64ZM932.584 454.904H945.432V455.944H932.584V454.904ZM933.32 457.256H944.808V458.264H933.32V457.256ZM931.992 459.704H945.976V460.76H931.992V459.704ZM938.344 453.56H939.56V460.52H938.344V453.56ZM938.296 460.056L939.336 460.552C937.672 462.376 934.712 464.056 932.232 464.872C932.04 464.568 931.704 464.12 931.448 463.88C933.912 463.176 936.808 461.64 938.296 460.056ZM940.04 460.216C941 463.64 943.08 466.168 946.472 467.176C946.2 467.416 945.864 467.912 945.688 468.232C942.152 467.016 940.056 464.312 938.952 460.44L940.04 460.216ZM944.6 461.288L945.56 462.04C944.424 462.952 942.904 463.928 941.752 464.568L941.016 463.912C942.136 463.24 943.688 462.136 944.6 461.288ZM933.224 467.176C935.064 466.776 937.944 466.056 940.68 465.384L940.792 466.456C938.264 467.112 935.528 467.8 933.608 468.28L933.224 467.176ZM935.48 463.032L936.344 462.168L936.68 462.264V467.096H935.48V463.032Z" fill="#FEE9E7"/>
</g>
<g filter="url(#filter2_d_8_14)">
<path d="M765 281C765 253.386 787.386 231 815 231H1015C1042.61 231 1065 253.386 1065 281C1065 308.614 1042.61 331 1015 331H815C787.386 331 765 308.614 765 281Z" fill="#EC221F"/>
<path d="M765.5 281C765.5 253.662 787.662 231.5 815 231.5H1015C1042.34 231.5 1064.5 253.662 1064.5 281C1064.5 308.338 1042.34 330.5 1015 330.5H815C787.662 330.5 765.5 308.338 765.5 281Z" stroke="#C00F0C" stroke-linecap="round"/>
<path d="M892.68 285.704H897.032V286.872H892.68V285.704ZM883.848 276.6H889.992V277.768H883.848V276.6ZM892.136 275.56H897.608V287.928H896.392V276.712H893.304V288.04H892.136V275.56ZM889.672 276.6H890.84C890.84 276.6 890.84 277.048 890.84 277.208C890.712 284.328 890.6 286.664 890.088 287.368C889.8 287.784 889.512 287.928 889.032 287.976C888.584 288.04 887.848 288.04 887.128 287.992C887.112 287.64 886.984 287.112 886.776 286.776C887.528 286.84 888.216 286.84 888.52 286.84C888.76 286.856 888.904 286.808 889.048 286.6C889.416 286.104 889.56 283.736 889.672 276.888V276.6ZM886.12 273.784H887.288C887.272 279.688 887.192 285.24 884.376 288.296C884.168 288.024 883.752 287.656 883.448 287.48C886.12 284.664 886.104 279.384 886.12 273.784ZM910.776 274.456L911.624 273.896C912.36 274.472 913.24 275.32 913.624 275.928L912.728 276.552C912.344 275.96 911.496 275.08 910.776 274.456ZM899.848 277.192H914.2V278.168H899.848V277.192ZM900.68 274.856H907.72V275.816H900.68V274.856ZM903.736 273.56H904.888V277.688H903.736V273.56ZM908.728 273.592H909.928C909.848 281.224 910.936 286.984 912.792 286.984C913.192 286.984 913.352 286.28 913.448 284.408C913.688 284.664 914.104 284.92 914.392 285.032C914.2 287.416 913.8 288.152 912.696 288.152C909.688 288.152 908.776 281.528 908.728 273.592ZM912.408 279L913.48 279.304C912.424 282.952 910.584 286.296 907.944 288.312C907.752 288.072 907.384 287.72 907.096 287.496C909.64 285.688 911.464 282.44 912.408 279ZM900.104 279.768H908.312V280.76H900.104V279.768ZM904.312 281.256H905.448V288.216H904.312V281.256ZM900.936 283.8C900.872 283.56 900.712 283 900.552 282.712C900.808 282.648 901.048 282.344 901.304 281.896C901.576 281.464 902.472 279.784 902.952 278.2L904.136 278.52C903.464 280.248 902.536 281.992 901.672 283.176V283.208C901.672 283.208 900.936 283.56 900.936 283.8ZM900.936 283.8V282.904L901.592 282.552H907.992L907.976 283.576H902.216C901.544 283.576 901.08 283.672 900.936 283.8ZM900.024 285.544C902.04 285.4 905.256 285.096 908.36 284.808L908.344 285.816C905.384 286.12 902.264 286.44 900.152 286.648L900.024 285.544ZM915.624 282.104H923.48V283.112H915.624V282.104ZM915.72 276.52H923.432V277.496H915.72V276.52ZM918.6 280.728L919.72 280.968C919 282.536 917.992 284.488 917.256 285.752L916.2 285.384C916.92 284.168 917.928 282.2 918.6 280.728ZM921 282.696L922.12 282.84C921.576 285.96 919.896 287.496 916.2 288.28C916.12 287.96 915.88 287.528 915.656 287.288C919 286.728 920.504 285.416 921 282.696ZM922.008 273.88L923.032 274.328C922.568 275.064 922.04 275.864 921.592 276.408L920.792 276.008C921.192 275.432 921.72 274.504 922.008 273.88ZM919.032 273.56H920.136V280.92H919.032V273.56ZM916.312 274.328L917.224 273.944C917.672 274.584 918.104 275.432 918.264 276.008L917.32 276.44C917.176 275.864 916.76 274.984 916.312 274.328ZM919.048 276.952L919.864 277.432C919.08 278.776 917.576 280.2 916.2 280.952C916.056 280.68 915.768 280.28 915.544 280.04C916.872 279.464 918.344 278.184 919.048 276.952ZM920.008 277.512C920.584 277.816 922.536 279.048 923 279.384L922.344 280.264C921.768 279.72 920.104 278.472 919.432 278.024L920.008 277.512ZM924.648 276.52H930.344V277.64H924.648V276.52ZM925.048 273.56L926.264 273.736C925.736 276.872 924.792 279.736 923.384 281.608C923.192 281.384 922.696 280.984 922.408 280.792C923.768 279.096 924.6 276.392 925.048 273.56ZM928.2 277.16L929.416 277.288C928.648 282.808 926.952 286.248 922.92 288.328C922.792 288.04 922.44 287.512 922.2 287.256C926.008 285.464 927.544 282.232 928.2 277.16ZM925.288 277.512C925.992 281.912 927.528 285.688 930.504 287.256C930.216 287.496 929.832 287.96 929.656 288.28C926.52 286.44 925 282.536 924.2 277.688L925.288 277.512ZM917.16 285.16L917.8 284.344C919.72 285.08 921.704 286.136 922.856 287.016L922.024 287.88C920.92 286.984 919.016 285.912 917.16 285.16ZM937.88 274.264H945.768V278.408H937.912V277.368H944.616V275.32H937.88V274.264ZM937.32 274.264H938.488V279.112C938.488 281.8 938.248 285.704 936.488 288.28C936.28 288.072 935.784 287.72 935.496 287.608C937.16 285.144 937.32 281.656 937.32 279.112V274.264ZM937.96 280.168H946.312V281.224H937.96V280.168ZM939.24 286.648H945.16V287.64H939.24V286.648ZM941.592 278.28H942.744V283.656H941.592V278.28ZM938.728 283.208H945.816V288.232H944.712V284.232H939.8V288.296H938.728V283.208ZM931.464 282.072C932.712 281.72 934.616 281.144 936.456 280.552L936.616 281.656C934.92 282.216 933.144 282.792 931.768 283.24L931.464 282.072ZM931.656 276.792H936.6V277.912H931.656V276.792ZM933.672 273.576H934.776V286.792C934.776 287.448 934.632 287.768 934.232 287.96C933.864 288.152 933.24 288.184 932.232 288.184C932.184 287.896 932.04 287.4 931.88 287.064C932.584 287.08 933.192 287.08 933.384 287.08C933.576 287.08 933.672 287.016 933.672 286.776V273.576Z" fill="#FEE9E7"/>
</g>
<g filter="url(#filter3_d_8_14)">
<path d="M735.915 136H728.005L740.057 101.091H749.568L761.602 136H753.693L744.949 109.068H744.676L735.915 136ZM735.42 122.278H754.102V128.04H735.42V122.278ZM782.984 111.131C782.848 109.756 782.263 108.687 781.229 107.926C780.195 107.165 778.791 106.784 777.018 106.784C775.814 106.784 774.797 106.955 773.967 107.295C773.138 107.625 772.501 108.085 772.058 108.676C771.626 109.267 771.411 109.938 771.411 110.688C771.388 111.312 771.518 111.858 771.803 112.324C772.098 112.79 772.501 113.193 773.013 113.534C773.524 113.864 774.115 114.153 774.786 114.403C775.456 114.642 776.172 114.847 776.933 115.017L780.07 115.767C781.592 116.108 782.99 116.562 784.263 117.131C785.536 117.699 786.638 118.398 787.57 119.227C788.501 120.057 789.223 121.034 789.734 122.159C790.257 123.284 790.524 124.574 790.536 126.028C790.524 128.165 789.979 130.017 788.899 131.585C787.831 133.142 786.286 134.352 784.263 135.216C782.251 136.068 779.825 136.494 776.984 136.494C774.166 136.494 771.712 136.062 769.621 135.199C767.541 134.335 765.916 133.057 764.746 131.364C763.587 129.659 762.979 127.551 762.922 125.04H770.064C770.143 126.21 770.479 127.187 771.07 127.972C771.672 128.744 772.473 129.33 773.473 129.727C774.484 130.114 775.626 130.307 776.899 130.307C778.149 130.307 779.234 130.125 780.155 129.761C781.087 129.398 781.808 128.892 782.32 128.244C782.831 127.597 783.087 126.852 783.087 126.011C783.087 125.227 782.854 124.568 782.388 124.034C781.933 123.5 781.263 123.045 780.376 122.67C779.501 122.295 778.428 121.955 777.155 121.648L773.354 120.693C770.411 119.977 768.087 118.858 766.382 117.335C764.678 115.812 763.831 113.761 763.842 111.182C763.831 109.068 764.393 107.222 765.53 105.642C766.678 104.062 768.251 102.83 770.251 101.943C772.251 101.057 774.524 100.614 777.07 100.614C779.661 100.614 781.922 101.057 783.854 101.943C785.797 102.83 787.308 104.062 788.388 105.642C789.467 107.222 790.024 109.051 790.058 111.131H782.984ZM794.54 136V101.091H818.063V107.176H801.921V115.494H816.853V121.58H801.921V129.915H818.131V136H794.54ZM823.633 99.136L827.521 95.776C829.921 98.032 833.185 101.248 834.721 103.36L830.593 107.152C829.201 104.992 826.033 101.584 823.633 99.136ZM827.809 139.36L826.513 134.272L827.473 132.496L836.305 124.72C836.833 126.256 837.793 128.416 838.465 129.472C830.113 136.864 828.625 138.208 827.809 139.36ZM821.569 109.984H830.737V115.168H821.569V109.984ZM836.353 119.584H866.113V124.768H836.353V119.584ZM855.265 122.272C857.857 126.688 862.801 131.44 867.265 133.888C865.969 134.944 864.241 136.912 863.329 138.352C858.865 135.136 854.209 129.28 851.425 123.76L855.265 122.272ZM843.745 109.168V112.288H858.481V109.168H843.745ZM843.745 101.728V104.8H858.481V101.728H843.745ZM838.561 97.168H863.905V116.848H838.561V97.168ZM847.537 122.272L851.473 123.664C848.641 129.76 843.745 135.616 838.561 138.736C837.697 137.392 836.017 135.376 834.817 134.368C839.905 131.92 844.945 127.12 847.537 122.272ZM848.833 99.328H854.065V114.544H854.305V140.272H848.641V114.544H848.833V99.328ZM827.809 139.36C827.137 138.304 825.361 136.432 824.401 135.712C825.553 134.608 827.281 132.304 827.281 129.424V109.984H832.801V132.112C832.801 132.112 827.809 137.2 827.809 139.36ZM871.393 98.416H910.705V103.312H871.393V98.416ZM873.601 105.76H908.833V110.368H873.601V105.76ZM869.617 113.008H912.241V117.904H869.617V113.008ZM887.905 95.248H893.761V117.136H887.905V95.248ZM887.953 114.832L892.945 117.184C887.809 122.704 879.313 127.552 871.489 130C870.625 128.608 868.993 126.496 867.793 125.296C875.377 123.328 883.729 119.2 887.953 114.832ZM896.257 115.744C898.753 125.296 904.081 132.256 913.969 135.088C912.673 136.24 911.041 138.64 910.225 140.224C899.473 136.48 894.145 128.512 891.025 116.752L896.257 115.744ZM907.345 118.624L912.097 122.224C908.497 124.816 904.177 127.456 900.865 129.088L897.217 126.016C900.433 124.144 904.753 121.072 907.345 118.624ZM872.881 134.896C878.689 133.888 887.521 132.064 895.729 130.288L896.257 135.472C888.721 137.2 880.561 138.976 874.609 140.272L872.881 134.896ZM879.457 125.152L883.249 121.36L885.217 121.888V135.712H879.457V125.152ZM923.953 103.936H957.361V109.552H923.953V103.936ZM921.985 118.096H955.537V123.616H921.985V118.096ZM916.417 133.312H959.809V138.928H916.417V133.312ZM935.089 95.248H941.089V136.096H935.089V95.248ZM924.001 95.824L929.953 97.168C927.841 104.608 924.337 112 920.593 116.608C919.441 115.6 916.897 113.92 915.409 113.104C919.201 109.072 922.273 102.448 924.001 95.824ZM969.745 113.296H980.833V118.576H969.745V113.296ZM978.625 113.296H984.241C984.241 113.296 984.193 114.736 984.193 115.408C984.001 125.584 983.761 129.856 982.657 131.344C981.697 132.544 980.737 132.976 979.345 133.216C978.049 133.408 975.985 133.408 973.729 133.36C973.633 131.68 973.009 129.424 972.145 127.984C973.873 128.176 975.505 128.176 976.273 128.176C976.945 128.176 977.377 128.08 977.761 127.6C978.337 126.832 978.529 123.472 978.625 114.16V113.296ZM993.073 98.272L996.529 94.768C999.169 96.16 1002.72 98.368 1004.45 99.952L1000.75 103.84C999.169 102.16 995.761 99.808 993.073 98.272ZM998.737 110.608L1004.54 112C1000.51 124.528 993.457 134.272 983.953 140.128C983.089 138.928 980.977 136.528 979.777 135.376C988.993 130.432 995.425 121.744 998.737 110.608ZM970.081 102.448H1007.09V108.112H970.081V102.448ZM966.241 102.448H972.289V116.56C972.289 123.76 971.473 134.416 967.105 140.896C966.145 139.744 963.553 137.632 962.209 136.96C965.905 131.2 966.241 122.8 966.241 116.512V102.448ZM985.729 95.296H991.777C991.441 114.88 995.857 134.128 1000.7 134.128C1001.81 134.128 1002.38 131.68 1002.67 125.632C1003.97 126.976 1006.03 128.32 1007.57 128.896C1006.66 137.824 1004.74 139.984 1000.22 139.984C989.761 139.984 985.873 117.184 985.729 95.296ZM1035.7 102.064H1050.38V107.2H1035.7V102.064ZM1035.41 95.2L1040.93 96.016C1039.78 104.368 1037.57 112.24 1034.11 117.28C1033.1 116.368 1030.75 114.688 1029.46 113.968C1032.72 109.648 1034.54 102.544 1035.41 95.2ZM1049.14 102.064H1049.9L1050.77 101.92L1054.66 102.832C1053.74 107.584 1052.5 113.008 1051.44 116.512L1046.83 115.36C1047.6 112.24 1048.56 107.008 1049.14 102.88V102.064ZM1039.01 111.616H1044.53V113.968C1044.53 121.072 1043.47 132.352 1033.2 140.416C1032.29 139.168 1030.27 137.344 1028.88 136.48C1038.24 129.472 1039.01 119.92 1039.01 113.824V111.616ZM1044.14 118.096C1045.78 125.776 1049.09 132.496 1055.14 135.472C1053.89 136.576 1052.16 138.784 1051.34 140.272C1044.62 136.384 1041.31 128.56 1039.39 118.912L1044.14 118.096ZM1009.97 100.432H1030.94V105.904H1009.97V100.432ZM1020.58 108.592H1025.71V140.224H1020.58V108.592ZM1009.34 126.976C1014.77 126.4 1023.12 125.248 1030.99 124.096L1031.23 129.376C1024.03 130.624 1016.3 131.92 1010.54 132.832L1009.34 126.976ZM1012.08 121.12C1011.79 120.064 1010.88 117.616 1010.3 116.224C1011.36 115.936 1012.13 114.592 1013.04 112.48C1014.05 110.416 1016.83 102.544 1018.18 95.344L1023.74 96.448C1021.87 104.272 1018.8 112.384 1015.97 118.144V118.192C1015.97 118.192 1012.08 120.112 1012.08 121.12ZM1012.08 121.12V116.608L1014.62 115.216H1030.51L1030.46 120.4H1016.02C1014.34 120.4 1012.46 120.688 1012.08 121.12ZM1083.31 95.872H1089.12V140.272H1083.31V95.872ZM1075.15 97.888L1080.67 99.04C1079.33 105.52 1077.02 112.24 1074.48 116.464C1073.33 115.6 1070.83 114.304 1069.44 113.68C1072.03 109.888 1074.05 103.792 1075.15 97.888ZM1076.98 104.56H1099.2V110.176H1075.58L1076.98 104.56ZM1070.3 118.48H1101.5V124.144H1070.3V118.48ZM1066.75 95.44L1072.18 97.12C1069.1 105.28 1064.21 113.92 1059.07 119.44C1058.54 118.048 1056.96 114.88 1056 113.488C1060.27 109.12 1064.35 102.304 1066.75 95.44ZM1062 108.688L1067.47 103.216V103.264V140.272H1062V108.688Z" fill="black"/>
</g>
<path d="M0 4C0 1.79086 1.79086 0 4 0H596C598.209 0 600 1.79086 600 4V796C600 798.209 598.209 800 596 800H4C1.79086 800 0 798.209 0 796V4Z" fill="#FF5555"/>
<path d="M50 102C50 95.3726 55.3726 90 62 90H538C544.627 90 550 95.3726 550 102V678C550 684.627 544.627 690 538 690H62C55.3726 690 50 684.627 50 678V102Z" fill="white"/>
</g>
<defs>
<filter id="filter0_d_8_14" x="761" y="590" width="308" height="108" filterUnits="userSpaceOnUse" color-interpolation-filters="sRGB">
<feFlood flood-opacity="0" result="BackgroundImageFix"/>
<feColorMatrix in="SourceAlpha" type="matrix" values="0 0 0 0 0 0 0 0 0 0 0 0 0 0 0 0 0 0 127 0" result="hardAlpha"/>
<feOffset dy="4"/>
<feGaussianBlur stdDeviation="2"/>
<feComposite in2="hardAlpha" operator="out"/>
<feColorMatrix type="matrix" values="0 0 0 0 0 0 0 0 0 0 0 0 0 0 0 0 0 0 0.25 0"/>
<feBlend mode="normal" in2="BackgroundImageFix" result="effect1_dropShadow_8_14"/>
<feBlend mode="normal" in="SourceGraphic" in2="effect1_dropShadow_8_14" result="shape"/>
</filter>
<filter id="filter1_d_8_14" x="761" y="411" width="308" height="108" filterUnits="userSpaceOnUse" color-interpolation-filters="sRGB">
<feFlood flood-opacity="0" result="BackgroundImageFix"/>
<feColorMatrix in="SourceAlpha" type="matrix" values="0 0 0 0 0 0 0 0 0 0 0 0 0 0 0 0 0 0 127 0" result="hardAlpha"/>
<feOffset dy="4"/>
<feGaussianBlur stdDeviation="2"/>
<feComposite in2="hardAlpha" operator="out"/>
<feColorMatrix type="matrix" values="0 0 0 0 0 0 0 0 0 0 0 0 0 0 0 0 0 0 0.25 0"/>
<feBlend mode="normal" in2="BackgroundImageFix" result="effect1_dropShadow_8_14"/>
<feBlend mode="normal" in="SourceGraphic" in2="effect1_dropShadow_8_14" result="shape"/>
</filter>
<filter id="filter2_d_8_14" x="761" y="231" width="308" height="108" filterUnits="userSpaceOnUse" color-interpolation-filters="sRGB">
<feFlood flood-opacity="0" result="BackgroundImageFix"/>
<feColorMatrix in="SourceAlpha" type="matrix" values="0 0 0 0 0 0 0 0 0 0 0 0 0 0 0 0 0 0 127 0" result="hardAlpha"/>
<feOffset dy="4"/>
<feGaussianBlur stdDeviation="2"/>
<feComposite in2="hardAlpha" operator="out"/>
<feColorMatrix type="matrix" values="0 0 0 0 0 0 0 0 0 0 0 0 0 0 0 0 0 0 0.25 0"/>
<feBlend mode="normal" in2="BackgroundImageFix" result="effect1_dropShadow_8_14"/>
<feBlend mode="normal" in="SourceGraphic" in2="effect1_dropShadow_8_14" result="shape"/>
</filter>
<filter id="filter3_d_8_14" x="724.005" y="94.768" width="381.499" height="54.128" filterUnits="userSpaceOnUse" color-interpolation-filters="sRGB">
<feFlood flood-opacity="0" result="BackgroundImageFix"/>
<feColorMatrix in="SourceAlpha" type="matrix" values="0 0 0 0 0 0 0 0 0 0 0 0 0 0 0 0 0 0 127 0" result="hardAlpha"/>
<feOffset dy="4"/>
<feGaussianBlur stdDeviation="2"/>
<feComposite in2="hardAlpha" operator="out"/>
<feColorMatrix type="matrix" values="0 0 0 0 0 0 0 0 0 0 0 0 0 0 0 0 0 0 0.25 0"/>
<feBlend mode="normal" in2="BackgroundImageFix" result="effect1_dropShadow_8_14"/>
<feBlend mode="normal" in="SourceGraphic" in2="effect1_dropShadow_8_14" result="shape"/>
</filter>
<clipPath id="clip0_8_14">
<rect width="1200" height="799" fill="white"/>
</clipPath>
</defs>
</svg>
